<?xml version="1.0" standalone="no"?>
<!DOCTYPE svg PUBLIC "-//W3C//DTD SVG 20010904//EN"
 "http://www.w3.org/TR/2001/REC-SVG-20010904/DTD/svg10.dtd">
<svg version="1.0" xmlns="http://www.w3.org/2000/svg"
 width="32.000000pt" height="32.000000pt" viewBox="0 0 32.000000 32.000000"
 preserveAspectRatio="xMidYMid meet">
<metadata>
Created by potrace 1.15, written by Peter Selinger 2001-2017
</metadata>
<g transform="translate(0.000000,32.000000) scale(0.100000,-0.100000)"
fill="#000000" stroke="none">
<path d="M62 258 c-9 -9 -3 -21 30 -55 l42 -43 -42 -43 c-33 -34 -39 -46 -30
-55 9 -9 21 -3 55 30 l43 42 43 -42 c34 -33 46 -39 55 -30 9 9 3 21 -30 55
l-42 43 42 43 c33 34 39 46 30 55 -9 9 -21 3 -55 -30 l-43 -42 -43 42 c-34 33
-46 39 -55 30z"/>
</g>
</svg>
