<?xml version="1.0" standalone="no"?>
<!DOCTYPE svg PUBLIC "-//W3C//DTD SVG 20010904//EN"
 "http://www.w3.org/TR/2001/REC-SVG-20010904/DTD/svg10.dtd">
<svg version="1.0" xmlns="http://www.w3.org/2000/svg"
 width="50.000000pt" height="50.000000pt" viewBox="0 0 50.000000 50.000000"
 preserveAspectRatio="xMidYMid meet">
<metadata>
Created by potrace 1.15, written by Peter Selinger 2001-2017
</metadata>
<g transform="translate(0.000000,50.000000) scale(0.100000,-0.100000)"
fill="#000000" stroke="none">
<path d="M70 260 c0 -110 2 -200 4 -200 2 0 48 -9 101 -20 120 -25 125 -25
125 0 0 17 7 20 50 20 l50 0 0 99 c0 75 4 101 15 111 11 9 15 35 15 101 l0 89
-180 0 -180 0 0 -200z m320 107 c0 -41 -5 -58 -20 -72 -17 -16 -20 -31 -20
-107 0 -87 0 -88 -25 -88 -24 0 -25 2 -25 69 0 49 -4 72 -15 81 -11 9 -15 33
-15 91 l0 79 60 0 60 0 0 -53z m-215 30 l50 -13 3 -71 c2 -47 8 -75 17 -83 11
-9 15 -34 15 -86 0 -84 2 -83 -95 -60 l-50 11 -3 158 c-1 86 1 157 5 157 5 0
31 -6 58 -13z"/>
</g>
</svg>
