<?xml version="1.0" standalone="no"?>
<!DOCTYPE svg PUBLIC "-//W3C//DTD SVG 20010904//EN"
 "http://www.w3.org/TR/2001/REC-SVG-20010904/DTD/svg10.dtd">
<svg version="1.0" xmlns="http://www.w3.org/2000/svg"
 width="50.000000pt" height="50.000000pt" viewBox="0 0 50.000000 50.000000"
 preserveAspectRatio="xMidYMid meet">
<metadata>
Created by potrace 1.15, written by Peter Selinger 2001-2017
</metadata>
<g transform="translate(0.000000,50.000000) scale(0.100000,-0.100000)"
fill="#000000" stroke="none">
<path d="M170 424 c-43 -19 -68 -41 -87 -78 -12 -24 -13 -30 -1 -37 21 -14 25
-11 47 25 41 66 126 84 196 41 39 -24 39 -24 13 -25 -21 0 -28 -5 -28 -20 0
-18 7 -20 60 -20 l60 0 0 60 c0 53 -2 60 -20 60 -13 0 -20 -7 -20 -19 0 -19
-2 -19 -42 4 -50 29 -124 33 -178 9z"/>
<path d="M375 173 c-42 -70 -122 -91 -196 -52 -43 23 -43 24 -16 27 19 2 27 9
27 23 0 17 -7 19 -60 19 l-60 0 0 -60 c0 -53 2 -60 20 -60 13 0 20 7 20 19 0
17 3 17 47 -5 96 -49 215 -17 260 70 12 24 13 30 1 37 -20 13 -26 11 -43 -18z"/>
</g>
</svg>
