<?xml version="1.0" standalone="no"?>
<!DOCTYPE svg PUBLIC "-//W3C//DTD SVG 20010904//EN"
 "http://www.w3.org/TR/2001/REC-SVG-20010904/DTD/svg10.dtd">
<svg version="1.0" xmlns="http://www.w3.org/2000/svg"
 width="50.000000pt" height="50.000000pt" viewBox="0 0 50.000000 50.000000"
 preserveAspectRatio="xMidYMid meet">
<metadata>
Created by potrace 1.15, written by Peter Selinger 2001-2017
</metadata>
<g transform="translate(0.000000,50.000000) scale(0.100000,-0.100000)"
fill="#000000" stroke="none">
<path d="M195 430 c-8 -37 -20 -45 -70 -45 -36 0 -42 -4 -60 -38 l-20 -38 22
-19 c29 -23 29 -57 1 -80 l-23 -19 20 -38 c18 -34 24 -38 60 -38 50 0 62 -8
70 -45 6 -28 9 -30 55 -30 46 0 49 2 55 30 8 37 20 45 70 45 36 0 42 4 60 38
l20 38 -22 19 c-13 10 -23 28 -23 40 0 12 10 30 23 40 l22 19 -20 38 c-18 34
-24 38 -60 38 -50 0 -62 8 -70 45 -6 28 -9 30 -55 30 -46 0 -49 -2 -55 -30z
m75 -38 c7 -30 64 -64 94 -56 29 7 41 -9 21 -26 -9 -8 -15 -30 -15 -60 0 -30
6 -52 15 -60 20 -17 8 -33 -21 -26 -30 8 -87 -26 -94 -56 -7 -30 -33 -30 -40
0 -6 28 -65 65 -91 57 -30 -10 -43 4 -23 26 10 11 17 35 17 59 0 24 -7 48 -17
59 -20 22 -7 36 23 26 25 -8 91 32 91 54 0 38 31 39 40 3z"/>
<path d="M192 307 c-50 -53 -13 -137 59 -137 47 0 79 34 79 81 0 71 -90 107
-138 56z"/>
</g>
</svg>
